<svg xmlns="http://www.w3.org/2000/svg" viewBox="0 0 15.69 16.06"><defs><style>.cls-1{fill:#fff;fill-rule:evenodd;}</style></defs><title>资源 4</title><g id="图层_2" data-name="图层 2"><g id="图层_1-2" data-name="图层 1"><path class="cls-1" d="M8.66,6.52a10.6,10.6,0,0,1,.06,1.14A10.6,10.6,0,0,1,7.2,13.21a7.63,7.63,0,0,1-2-.58h0A9.84,9.84,0,0,0,8.66,6.52Z"/><path class="cls-1" d="M15.69,10.94c-.76,2.92-3.94,5.12-7.75,5.12C3.55,16.06,0,13.16,0,9.57A5.92,5.92,0,0,1,2.33,5,5.55,5.55,0,0,0,1.25,8.82c.36,3.48,4.18,5.85,8.52,5.3A9,9,0,0,0,15.69,10.94Z"/><path class="cls-1" d="M8.25,1.36a9.22,9.22,0,0,1,6.08,8.8,9.46,9.46,0,0,1-.06,1.07,8.43,8.43,0,0,1-4.59,2A9.44,9.44,0,0,1,8,13.33,17.18,17.18,0,0,0,9.16,7,17.57,17.57,0,0,0,8.25,1.36Z"/><path class="cls-1" d="M8.08,0a4,4,0,0,1,2.24.68A3.34,3.34,0,0,0,5.67,3.76a3.46,3.46,0,0,0,.19,1.12A5.58,5.58,0,0,0,1.81,7.24a3.4,3.4,0,0,1,2.6-3.31,3.66,3.66,0,0,1,0-.57A3.55,3.55,0,0,1,8.08,0Z"/></g></g></svg>